inDegrees=no
num_controls=7
num_derivatives=13
num_iterations=78
num_multipliers=7
num_parameters=0
num_slacks=7
num_states=26
objective=0.453070
objective_accelerations=0.047927
objective_balance=0.001031
objective_effort=0.037390
objective_height=0.361096
objective_ligament=0.005626
solver_duration=897.498421
status=Solve_Succeeded
success=true
DataType=double
version=3
OpenSimVersion=4.5
endheader
time	/jointset/ground_pelvis/pelvis_tilt/value	/jointset/ground_pelvis/pelvis_tx/value	/jointset/ground_pelvis/pelvis_ty/value	/jointset/hip_r/hip_flexion_r/value	/jointset/hip_r/hip_adduction_r/value	/jointset/hip_r/hip_rotation_r/value	/jointset/back/lumbar_extension/value	/jointset/patellofemoral_r/patellar_flexion_r/value	/jointset/knee_r/knee_flexion_r/value	/jointset/knee_r/knee_adduction_r/value	/jointset/knee_r/knee_rotation_r/value	/jointset/ankle_r/ankle_angle_r/value	/jointset/subtalar_r/subtalar_angle_r/value	/jointset/ground_pelvis/pelvis_tilt/speed	/jointset/ground_pelvis/pelvis_tx/speed	/jointset/ground_pelvis/pelvis_ty/speed	/jointset/hip_r/hip_flexion_r/speed	/jointset/hip_r/hip_adduction_r/speed	/jointset/hip_r/hip_rotation_r/speed	/jointset/back/lumbar_extension/speed	/jointset/patellofemoral_r/patellar_flexion_r/speed	/jointset/knee_r/knee_flexion_r/speed	/jointset/knee_r/knee_adduction_r/speed	/jointset/knee_r/knee_rotation_r/speed	/jointset/ankle_r/ankle_angle_r/speed	/jointset/subtalar_r/subtalar_angle_r/speed	/forceset/tau_hip_flexion_r	/forceset/tau_hip_adduction_r	/forceset/tau_hip_rotation_r	/forceset/tau_knee_flexion_r	/forceset/tau_ankle_angle_r	/forceset/tau_subtalar_angle_r	/forceset/tau_lumbar_extension	lambda_cid13_p0	lambda_cid14_p0	lambda_cid14_p1	lambda_cid14_p2	lambda_cid14_p3	lambda_cid14_p4	lambda_cid14_p5	/jointset/ground_pelvis/pelvis_tilt/accel	/jointset/ground_pelvis/pelvis_tx/accel	/jointset/ground_pelvis/pelvis_ty/accel	/jointset/hip_r/hip_flexion_r/accel	/jointset/hip_r/hip_adduction_r/accel	/jointset/hip_r/hip_rotation_r/accel	/jointset/back/lumbar_extension/accel	/jointset/patellofemoral_r/patellar_flexion_r/accel	/jointset/knee_r/knee_flexion_r/accel	/jointset/knee_r/knee_adduction_r/accel	/jointset/knee_r/knee_rotation_r/accel	/jointset/ankle_r/ankle_angle_r/accel	/jointset/subtalar_r/subtalar_angle_r/accel	gamma_cid13_p0	gamma_cid14_p0	gamma_cid14_p1	gamma_cid14_p2	gamma_cid14_p3	gamma_cid14_p4	gamma_cid14_p5
0	0.0003854232638340258	0.1277273025536589	0.934390235545556	0.1934211968871041	-0.2157177544768713	-0.2384905353717949	-0.2903787966825928	0.2311786273363371	0.2311786273363406	0.1057675182309426	0.1627146020156974	0.089344008118978	0.07928700414918162	0	0	0	0	0	0	0	0	0	0	0	0	0	0.09831101923194062	-0.01207556275087072	0.001738144935575701	-0.217052231597824	0.08993074557090333	-0.08789343279337544	-0.02230846452649299	-29.53559728472126	-17.81780493714691	-36.9905955583209	1.40613750804827	12.97978233838805	-609.0523281501721	26.09178976857303	-1.736128514335516	-2.016906438586483	-0.8599848290318799	10.00803564067862	0.006441597864921117	1.831678332751209	-6.380111011717422	10.19575050318969	10.19575050318973	-2.696732231790232	0.639783111779861	2.56775855013704	0.7629150092667066	2.011775636276448e-08	3.534301108207276e-08	-1.306329131887714e-07	1.471613373991078e-07	-1.990927370264022e-08	2.164660884945601e-07	-1.24197590607986e-07
0.01	0.0003038314510077433	0.127629578941158	0.9343484242507389	0.1939071248944675	-0.2157155717940787	-0.2383984810237322	-0.2906983682655091	0.2316785844352102	0.2316785844352207	0.1056314326457974	0.1627424879534374	0.08947244831478028	0.07932746983893105	-0.01633781821013277	-0.01925664657208985	-0.008341472968035576	0.09660667733096255	0.0004439782108321085	0.01838204337008847	-0.06340241813204656	0.09953597501465143	0.09953597501465143	-0.02710678797576432	0.005462152248021364	0.02581993606095178	0.008144325423465206	0.1010711685435291	-0.03039967922625265	0.001464534983919747	-0.2290761859719528	0.1065918102998355	-0.07813656021885987	-0.02271603090371591	-29.54171352679037	-11.89687152653796	-31.86151607722507	0.7540951927862689	6.270034994262017	-610.8161027228302	38.05572517305647	-1.585531165060175	-1.836836359118452	-0.8180673381626686	9.400144517620712	0.06448960036772132	1.837173022486235	-6.243522446278252	9.764200262950748	9.764200262950729	-2.701113194123879	0.4822049963676913	2.608900322568483	0.8478658077537992	3.662323258724132e-08	1.296794531388639e-08	-2.482626312234022e-07	2.200817336299775e-07	1.472196421485047e-08	5.793993495042587e-08	-2.372508612403934e-07
0.02	5.82769179382342e-05	0.1273479303444167	0.9342238304647466	0.1953417518228044	-0.2157087265956449	-0.2381234651052954	-0.291636607076211	0.2331602371367042	0.233160237136706	0.1052275869581276	0.1628215501566685	0.08986304570889396	0.07945091368268845	-0.03279254404858001	-0.03678499684808855	-0.01655649823503674	0.1897397841945564	0.0009325031286917321	0.0365923140741219	-0.1237334455572945	0.196339120523216	0.1963391205232156	-0.05355202049769806	0.01023525309821646	0.0524314396616725	0.01659563080162367	0.1038313178551125	-0.04872379570166418	0.001190925032250647	-0.241100140346095	0.1232528750287511	-0.0683796876443853	-0.0231235972809258	-29.55949544228898	-5.897344711685894	-26.7349864872293	0.1210915814720254	-0.4087309717335555	-611.3177334752197	49.75359439660838	-1.759510039998422	-1.671247179368238	-0.8346952888249982	9.313321547204865	0.01535093927042304	1.797323799540205	-5.765832870357701	9.64918460197231	9.649184601972275	-2.564421141024116	0.5019728322146015	2.726072058090842	0.8243110002053602	5.312870881171814e-08	-9.407120454299985e-09	-3.65892349258033e-07	2.930021298608471e-07	4.935320213234115e-08	-1.005862185937084e-07	-3.503041318728009e-07
0.03	-0.0003517513917428808	0.1268974156943208	0.9340174576207976	0.1976923081306869	-0.2156972921144009	-0.2376688852239567	-0.2931636993394295	0.2355964044740576	0.2355964044740569	0.1045636532175857	0.1629468182857797	0.09052074462638107	0.07965890754886618	-0.04912645007774793	-0.05325114891828329	-0.02471580248492895	0.2799392834132571	0.001328814713629326	0.05422186192483099	-0.1813062166835509	0.2904335442963153	0.2904335442963141	-0.07904482664174139	0.01478854648504283	0.07894644086152237	0.02492729065156988	0.09815661535742394	-0.04814108170129246	0.001531305284572138	-0.2350150687048692	0.1145359412482365	-0.06497087645810262	-0.01849647882972075	-29.58808662265085	-8.502586121358664	-25.55611767639014	-0.2434210541090738	0.8728733857980419	-611.6690825818412	51.20499409532442	-1.557326835019937	-1.624271572312519	-0.8062285403525555	8.808436454666609	0.04793870104963738	1.730559139385914	-5.696180673347444	9.220440174890207	9.220440174890106	-2.51325321663582	0.4275909366052918	2.589932617952481	0.8261935863889945	5.418629850882124e-08	-1.873380417510962e-08	-3.55708303132723e-07	2.795804046683383e-07	5.687372421474085e-08	-1.934072285920405e-07	-3.330460149809551e-07
0.04	-0.0009225179518445512	0.1262842450532295	0.9337295556248935	0.200931893899853	-0.2156826610307228	-0.2370410520918005	-0.295255155601827	0.2389596898311212	0.238959689831123	0.1036504828424802	0.1631167360177098	0.09143873724927166	0.07994793803534321	-0.06494019413267542	-0.06931619504716396	-0.03286232862608665	0.3675456764505154	0.001571823616339782	0.07124296423752785	-0.236606245393323	0.3817627244658726	0.381762724465871	-0.1033993474074384	0.01916517365941086	0.1044901807421893	0.03280295486150522	0.09248191285977062	-0.04755836770092859	0.00187168553695583	-0.2289299970636314	0.1058190074677236	-0.06156206527182969	-0.01386936037848615	-29.62624757841908	-11.03541398159426	-24.37921351547757	-0.5908937746596648	2.169802319561158	-610.8694520124526	52.41494018414528	-1.655477645150347	-1.591025991105407	-0.8321396670781002	8.794700310916333	-0.01530959717500744	1.675634691937768	-5.311284387060821	9.096135881263898	9.096135881263926	-2.336764065354848	0.4666395897229271	2.531819794254265	0.7331118722031867	5.492537508164857e-08	-2.779144909081871e-08	-3.428889216639091e-07	2.643784295495741e-07	6.383526246548918e-08	-2.848734933626241e-07	-3.131010653566503e-07
0.05	-0.001649420728292122	0.1255127859439252	0.9333599929476343	0.2050351400930253	-0.2156661094326921	-0.2362462846917812	-0.2978876758548121	0.2432228972205789	0.2432228972205816	0.1024988185353132	0.1633294761610493	0.09260798219481763	0.08031399463572431	-0.08036527725887693	-0.08487150143933177	-0.041065244420062	0.452658386843161	0.001756886654707784	0.08759710176783071	-0.2895131722458991	0.4704293249439842	0.4704293249439864	-0.1268375844212987	0.02331800678741145	0.1292595726693494	0.04040850883645265	0.08766082707292078	-0.04213059506085136	0.002028216992024739	-0.2260897346979749	0.1031986629339611	-0.06289575077764006	-0.009764947813434755	-29.67262435556635	-11.89540267743186	-25.13770555740565	-0.4371932205054528	2.086074464440563	-610.3361451796078	49.72031367949741	-1.474753178293485	-1.52215133375538	-0.8166808885266358	8.302782428352209	0.03817829446097052	1.598344079856246	-5.222701890694029	8.684496867743748	8.684496867744325	-2.332990228814297	0.3799292350115525	2.434616208863055	0.7742773851263002	5.249815032845534e-08	-3.833719352142592e-08	-3.337653455913536e-07	1.606096765152268e-07	7.093761131145357e-08	-3.864760404944797e-07	-2.28283127868986e-07
